<svg width="118" height="45" viewBox="0 0 118 45" fill="none" xmlns="http://www.w3.org/2000/svg">
<path d="M39.2779 44.5167C38.5709 44.7387 37.8363 44.8608 37.0955 44.8795C36.6332 44.9096 36.1698 44.8419 35.7354 44.6811C35.301 44.5202 34.9053 44.2697 34.5741 43.9459C33.9987 43.1723 33.688 42.2339 33.688 41.2699C33.688 40.3058 33.9987 39.3674 34.5741 38.5939C34.9017 38.2674 35.2947 38.0139 35.7272 37.85C36.1596 37.686 36.6219 37.6152 37.0836 37.6424C37.8179 37.6496 38.548 37.7557 39.2541 37.9576V38.8614C38.5558 38.5884 37.8198 38.4239 37.0717 38.3738C36.7431 38.3575 36.4151 38.4177 36.1138 38.5498C35.8124 38.6819 35.5459 38.8822 35.3352 39.135C34.8964 39.7543 34.6862 40.5068 34.7406 41.2639C34.6932 42.0285 34.9281 42.7839 35.4007 43.3869C35.6326 43.6437 35.9191 43.8454 36.2391 43.9771C36.5591 44.1088 36.9046 44.1672 37.2501 44.1481C37.6074 44.1417 37.962 44.0836 38.3027 43.9756V41.7337H39.2839L39.2779 44.5167Z" fill="white"/>
<path d="M45.7539 44.7057V37.8135H47.8412C48.3826 37.7783 48.9192 37.934 49.3576 38.2535C49.5375 38.4108 49.6788 38.6075 49.7706 38.8281C49.8624 39.0488 49.9021 39.2876 49.8868 39.5261C49.8967 39.9521 49.7673 40.3698 49.5181 40.7155C49.2612 41.0714 48.9056 41.3442 48.4953 41.5004L50.7967 44.7295H49.6073L47.6449 41.8156H46.7351V44.7295L45.7539 44.7057ZM46.7232 41.0603H47.0503C47.5364 41.0929 48.0195 40.9632 48.424 40.6917C48.5837 40.5635 48.7102 40.3988 48.793 40.2115C48.8758 40.0242 48.9124 39.8197 48.8997 39.6153C48.8997 38.9017 48.3823 38.5449 47.3476 38.5449H46.7529L46.7232 41.0603Z" fill="white"/>
<path d="M59.36 44.861C58.9208 44.8799 58.4828 44.8012 58.0776 44.6305C57.6725 44.4598 57.3103 44.2014 57.017 43.8739C56.4499 43.1138 56.1436 42.1908 56.1436 41.2424C56.1436 40.2941 56.4499 39.3712 57.017 38.611C57.3222 38.2989 57.6866 38.0509 58.089 37.8815C58.4913 37.7122 58.9235 37.625 59.36 37.625C59.7965 37.625 60.2286 37.7122 60.631 37.8815C61.0333 38.0509 61.3978 38.2989 61.703 38.611C62.2737 39.3696 62.5824 40.2932 62.5824 41.2424C62.5824 42.1917 62.2737 43.1153 61.703 43.8739C61.4097 44.2014 61.0475 44.4598 60.6423 44.6305C60.2372 44.8012 59.7992 44.8799 59.36 44.861ZM59.36 44.1296C59.6701 44.1438 59.9789 44.0812 60.259 43.9474C60.5391 43.8136 60.7818 43.6126 60.9656 43.3624C61.3436 42.7188 61.5428 41.9859 61.5428 41.2395C61.5428 40.493 61.3436 39.7602 60.9656 39.1165C60.7709 38.8789 60.5259 38.6873 60.2483 38.5558C59.9706 38.4243 59.6672 38.3561 59.36 38.3561C59.0528 38.3561 58.7494 38.4243 58.4717 38.5558C58.194 38.6873 57.949 38.8789 57.7544 39.1165C57.3764 39.7602 57.1771 40.493 57.1771 41.2395C57.1771 41.9859 57.3764 42.7188 57.7544 43.3624C57.9373 43.6147 58.1793 43.8183 58.4593 43.9551C58.7392 44.092 59.0485 44.158 59.36 44.1474V44.1296Z" fill="white"/>
<path d="M68.6602 37.8164H69.6473V42.1634C69.6028 42.696 69.739 43.2281 70.0338 43.6739C70.1867 43.8416 70.3763 43.9718 70.5877 44.0544C70.7992 44.1369 71.0268 44.1695 71.2529 44.1496C71.4677 44.1721 71.6847 44.1434 71.8863 44.0659C72.0878 43.9883 72.2682 43.8642 72.4125 43.7036C72.6787 43.2494 72.7972 42.7236 72.7515 42.1991V37.8164H73.6138V42.1872C73.6328 42.6558 73.5724 43.1243 73.4353 43.5728C73.3091 43.9114 73.0883 44.2065 72.799 44.4232C72.2645 44.7545 71.6407 44.9129 71.0128 44.8767C70.3849 44.8405 69.7835 44.6115 69.2905 44.221C68.8421 43.6312 68.6301 42.8954 68.6958 42.1575L68.6602 37.8164Z" fill="white"/>
<path d="M80.084 44.7067V37.8145H81.9631C82.3837 37.8019 82.804 37.8479 83.2119 37.9513C83.4914 38.0336 83.7412 38.1946 83.9315 38.4151C84.1882 38.757 84.3185 39.1773 84.3002 39.6045C84.3157 39.9301 84.2562 40.255 84.1263 40.554C83.9963 40.853 83.7995 41.1181 83.5509 41.329C82.9555 41.7659 82.224 41.9767 81.4874 41.9237H81.0533V44.6591L80.084 44.7067ZM81.0533 41.2279H81.4517C81.9328 41.2586 82.4091 41.1173 82.7957 40.8295C82.9554 40.6882 83.0812 40.5127 83.1635 40.316C83.2459 40.1194 83.2828 39.9066 83.2714 39.6937C83.287 39.5274 83.2609 39.3598 83.1955 39.2062C83.1301 39.0525 83.0274 38.9176 82.8968 38.8136C82.5178 38.604 82.0855 38.5109 81.6539 38.546H81.0592L81.0533 41.2279Z" fill="white"/>
<path d="M88.1476 2.32031L118 2.32031V0.0249009L88.1476 0.0249009V2.32031Z" fill="white"/>
<path d="M104.68 29.8758V0.0234375L101.463 0.0234375V29.8758H104.68Z" fill="white"/>
<path d="M80.7682 2.32517L63.5823 19.5111L44.1009 0.0297625L44.0771 0V3.2469L61.9588 21.1345L63.5823 22.758L65.2057 21.1345L79.8465 6.49381V29.8762H80.7682H83.0636V3.27068V0.0297625L80.7682 2.32517Z" fill="white"/>
<path d="M36.697 2.32517L19.5111 19.5111L0.0237873 0.0297625L0 0V3.2469L17.8876 21.1345H17.8817L19.5051 22.758H19.5111L21.1345 21.1345H21.1286L35.7693 6.49381V29.8762H36.697H38.9924V3.27068V0.0297625L36.697 2.32517Z" fill="white"/>
</svg>
