<svg width="24" height="25" viewBox="0 0 24 25" fill="none" xmlns="http://www.w3.org/2000/svg">
<path d="M3 21.5L2.26323 21.3597C2.2168 21.6037 2.2941 21.8548 2.46967 22.0303C2.64524 22.2059 2.89633 22.2832 3.14025 22.2368L3 21.5ZM4.78696 15.7718L4.25663 15.2414L4.78696 15.7718ZM3.69916 17.8272L2.96239 17.687L3.69916 17.8272ZM8.72823 19.713L8.1979 19.1827L8.72823 19.713ZM6.67278 20.8008L6.81303 21.5376H6.81303L6.67278 20.8008ZM20.1837 8.25754L20.7141 8.78787L20.1837 8.25754ZM16.2425 4.31627L16.7728 4.8466L16.2425 4.31627ZM14.9168 5.80081C14.6239 5.50792 14.149 5.50792 13.8561 5.80081C13.5633 6.0937 13.5633 6.56858 13.8561 6.86147L14.9168 5.80081ZM17.6386 10.644C17.9315 10.9369 18.4064 10.9369 18.6993 10.644C18.9922 10.3511 18.9922 9.87621 18.6993 9.58331L17.6386 10.644ZM19.6534 7.72721L8.1979 19.1827L9.25856 20.2434L20.7141 8.78787L19.6534 7.72721ZM5.31729 16.3021L16.7728 4.8466L15.7121 3.78594L4.25663 15.2414L5.31729 16.3021ZM6.53253 20.0641L2.85975 20.7632L3.14025 22.2368L6.81303 21.5376L6.53253 20.0641ZM3.73677 21.6403L4.43593 17.9675L2.96239 17.687L2.26323 21.3597L3.73677 21.6403ZM4.25663 15.2414C3.58971 15.9084 3.13877 16.7604 2.96239 17.687L4.43593 17.9675C4.55604 17.3365 4.86312 16.7563 5.31729 16.3021L4.25663 15.2414ZM8.1979 19.1827C7.74374 19.6369 7.16348 19.944 6.53253 20.0641L6.81303 21.5376C7.73956 21.3612 8.59164 20.9103 9.25856 20.2434L8.1979 19.1827ZM19.6534 4.84659C20.4489 5.64205 20.4489 6.93175 19.6534 7.72721L20.7141 8.78787C22.0953 7.40662 22.0953 5.16718 20.7141 3.78593L19.6534 4.84659ZM20.7141 3.78593C19.3328 2.40469 17.0934 2.40469 15.7121 3.78594L16.7728 4.8466C17.5682 4.05114 18.8579 4.05113 19.6534 4.84659L20.7141 3.78593ZM13.8561 6.86147L17.6386 10.644L18.6993 9.58331L14.9168 5.80081L13.8561 6.86147Z" fill="white"/>
</svg>
