<svg width="24" height="24" viewBox="0 0 24 24" fill="none" xmlns="http://www.w3.org/2000/svg">
<path d="M12 5.70088L11.463 6.22449C11.6042 6.36924 11.7978 6.45088 12 6.45088C12.2022 6.45088 12.3958 6.36924 12.537 6.22449L12 5.70088ZM12.6851 4.99834L13.222 5.52195L12.6851 4.99834ZM11.315 4.99836L11.8519 4.47475L11.8519 4.47475L11.315 4.99836ZM3.45393 12.7583L2.89742 13.2611L3.45393 12.7583ZM9.18026 19.0965L8.62374 19.5993L9.18026 19.0965ZM14.8197 19.0965L15.3762 19.5993L14.8197 19.0965ZM20.5461 12.7583L21.1026 13.261L20.5461 12.7583ZM20.4018 4.99834L19.8648 5.52195L20.4018 4.99834ZM3.5982 4.99836L4.13517 5.52197L3.5982 4.99836ZM17 5.74834C16.5858 5.74834 16.25 6.08413 16.25 6.49834C16.25 6.91255 16.5858 7.24834 17 7.24834V5.74834ZM18.25 8.49834C18.25 8.91255 18.5858 9.24834 19 9.24834C19.4142 9.24834 19.75 8.91255 19.75 8.49834H18.25ZM12.537 6.22449L13.222 5.52195L12.1481 4.47473L11.463 5.17727L12.537 6.22449ZM10.778 5.52197L11.463 6.22449L12.537 5.17727L11.8519 4.47475L10.778 5.52197ZM2.89742 13.2611L8.62374 19.5993L9.73677 18.5937L4.01044 12.2555L2.89742 13.2611ZM15.3762 19.5993L21.1026 13.261L19.9896 12.2555L14.2632 18.5937L15.3762 19.5993ZM19.8648 5.52195C21.6618 7.36473 21.7178 10.3426 19.9896 12.2555L21.1026 13.261C23.3607 10.7617 23.2892 6.88515 20.9388 4.47473L19.8648 5.52195ZM20.9388 4.47473C18.5135 1.98759 14.5734 1.98759 12.1481 4.47473L13.222 5.52195C15.0586 3.63852 18.0283 3.63852 19.8648 5.52195L20.9388 4.47473ZM4.13517 5.52197C5.97175 3.63853 8.94141 3.63853 10.778 5.52197L11.8519 4.47475C9.42666 1.9876 5.4865 1.9876 3.06123 4.47475L4.13517 5.52197ZM8.62374 19.5993C10.4428 21.6127 13.5572 21.6127 15.3762 19.5993L14.2632 18.5937C13.0397 19.9479 10.9603 19.9479 9.73677 18.5937L8.62374 19.5993ZM3.06123 4.47475C0.710775 6.88517 0.639347 10.7617 2.89742 13.2611L4.01044 12.2555C2.28222 10.3426 2.33823 7.36475 4.13517 5.52197L3.06123 4.47475ZM17 7.24834C17.6903 7.24834 18.25 7.80798 18.25 8.49834H19.75C19.75 6.97956 18.5188 5.74834 17 5.74834V7.24834Z" fill="white"/>
</svg>
