<svg width="22" height="23" viewBox="0 0 22 23" fill="none" xmlns="http://www.w3.org/2000/svg">
<path d="M16 5.5H16.75C16.75 5.08579 16.4142 4.75 16 4.75V5.5ZM16 8.5V9.25C16.4142 9.25 16.75 8.91421 16.75 8.5H16ZM12.5 21.5H11.75C11.75 21.9142 12.0858 22.25 12.5 22.25V21.5ZM9.5 21.5V22.25C9.91421 22.25 10.25 21.9142 10.25 21.5H9.5ZM9.5 14.5H10.25C10.25 14.0858 9.91421 13.75 9.5 13.75V14.5ZM6 14.5H5.25C5.25 14.9142 5.58579 15.25 6 15.25V14.5ZM6 11.5V10.75C5.58579 10.75 5.25 11.0858 5.25 11.5H6ZM9.5 11.5V12.25C9.91421 12.25 10.25 11.9142 10.25 11.5H9.5ZM12.5 11.5H11.75C11.75 11.9142 12.0858 12.25 12.5 12.25V11.5ZM16 11.5H16.75C16.75 11.0858 16.4142 10.75 16 10.75V11.5ZM16 14.5V15.25C16.4142 15.25 16.75 14.9142 16.75 14.5H16ZM12.5 14.5V13.75C12.0858 13.75 11.75 14.0858 11.75 14.5H12.5ZM5 2.25H17V0.75H5V2.25ZM20.25 5.5V17.5H21.75V5.5H20.25ZM1.75 17.5V5.5H0.25V17.5H1.75ZM5 20.75C3.20507 20.75 1.75 19.2949 1.75 17.5H0.25C0.25 20.1234 2.37665 22.25 5 22.25V20.75ZM20.25 17.5C20.25 19.2949 18.7949 20.75 17 20.75V22.25C19.6234 22.25 21.75 20.1234 21.75 17.5H20.25ZM17 2.25C18.7949 2.25 20.25 3.70507 20.25 5.5H21.75C21.75 2.87665 19.6234 0.75 17 0.75V2.25ZM5 0.75C2.37665 0.75 0.25 2.87665 0.25 5.5H1.75C1.75 3.70507 3.20507 2.25 5 2.25V0.75ZM13.5 6.25H16V4.75H13.5V6.25ZM15.25 5.5V8.5H16.75V5.5H15.25ZM16 7.75H13.5V9.25H16V7.75ZM10.25 21.5V14.5H8.75V21.5H10.25ZM9.5 13.75H6V15.25H9.5V13.75ZM6.75 14.5V11.5H5.25V14.5H6.75ZM6 12.25H9.5V10.75H6V12.25ZM10.25 11.5V9.5H8.75V11.5H10.25ZM11.75 9.5V11.5H13.25V9.5H11.75ZM12.5 12.25H16V10.75H12.5V12.25ZM15.25 11.5V14.5H16.75V11.5H15.25ZM11.75 14.5V21.5H13.25V14.5H11.75ZM16 13.75H12.5V15.25H16V13.75ZM17 20.75H12.5V22.25H17V20.75ZM9.5 20.75H5V22.25H9.5V20.75ZM13.5 7.75C12.5335 7.75 11.75 8.5335 11.75 9.5H13.25C13.25 9.36193 13.3619 9.25 13.5 9.25V7.75ZM13.5 4.75C10.8766 4.75 8.75 6.87665 8.75 9.5H10.25C10.25 7.70507 11.7051 6.25 13.5 6.25V4.75Z" fill="white"/>
</svg>
