<svg width="48" height="54" viewBox="0 0 48 54" fill="none" xmlns="http://www.w3.org/2000/svg">
<path d="M8 5.42188H16V3.92188H8V5.42188ZM19.25 9.07814V17.8907H20.75V9.07814H19.25ZM16 21.5469H8V23.0469H16V21.5469ZM4.75 17.8907V9.07814H3.25V17.8907H4.75ZM8 21.5469C6.27169 21.5469 4.75 19.9799 4.75 17.8907H3.25C3.25 20.6685 5.31003 23.0469 8 23.0469V21.5469ZM19.25 17.8907C19.25 19.9799 17.7283 21.5469 16 21.5469V23.0469C18.69 23.0469 20.75 20.6685 20.75 17.8907H19.25ZM16 5.42188C17.7283 5.42188 19.25 6.98893 19.25 9.07814H20.75C20.75 6.30033 18.69 3.92188 16 3.92188V5.42188ZM8 3.92188C5.31003 3.92188 3.25 6.30033 3.25 9.07814H4.75C4.75 6.98893 6.27169 5.42188 8 5.42188V3.92188ZM43.25 13.4844C43.25 18.0071 39.9374 21.5469 36 21.5469V23.0469C40.8991 23.0469 44.75 18.6957 44.75 13.4844H43.25ZM36 21.5469C32.0626 21.5469 28.75 18.0071 28.75 13.4844H27.25C27.25 18.6957 31.1009 23.0469 36 23.0469V21.5469ZM28.75 13.4844C28.75 8.96168 32.0626 5.42188 36 5.42188V3.92188C31.1009 3.92188 27.25 8.27309 27.25 13.4844H28.75ZM36 5.42188C39.9374 5.42188 43.25 8.96168 43.25 13.4844H44.75C44.75 8.27309 40.8991 3.92188 36 3.92188V5.42188ZM19.25 39.922C19.25 44.4448 15.9374 47.9846 12 47.9846V49.4846C16.8991 49.4846 20.75 45.1334 20.75 39.922H19.25ZM12 47.9846C8.06255 47.9846 4.75 44.4448 4.75 39.922H3.25C3.25 45.1334 7.10089 49.4846 12 49.4846V47.9846ZM4.75 39.922C4.75 35.3993 8.06255 31.8595 12 31.8595V30.3595C7.10089 30.3595 3.25 34.7107 3.25 39.922H4.75ZM12 31.8595C15.9374 31.8595 19.25 35.3993 19.25 39.922H20.75C20.75 34.7107 16.8991 30.3595 12 30.3595V31.8595ZM32 31.8595H40V30.3595H32V31.8595ZM43.25 35.5158V44.3283H44.75V35.5158H43.25ZM40 47.9846H32V49.4846H40V47.9846ZM28.75 44.3283V35.5158H27.25V44.3283H28.75ZM32 47.9846C30.2717 47.9846 28.75 46.4175 28.75 44.3283H27.25C27.25 47.1061 29.31 49.4846 32 49.4846V47.9846ZM43.25 44.3283C43.25 46.4175 41.7283 47.9846 40 47.9846V49.4846C42.69 49.4846 44.75 47.1061 44.75 44.3283H43.25ZM40 31.8595C41.7283 31.8595 43.25 33.4265 43.25 35.5158H44.75C44.75 32.7379 42.69 30.3595 40 30.3595V31.8595ZM32 30.3595C29.31 30.3595 27.25 32.7379 27.25 35.5158H28.75C28.75 33.4265 30.2717 31.8595 32 31.8595V30.3595Z" fill="white"/>
</svg>
