<svg width="48" height="48" viewBox="0 0 48 48" fill="none" xmlns="http://www.w3.org/2000/svg">
<path d="M4.60615 33.8709L4.28641 34.5493H4.28641L4.60615 33.8709ZM13.0557 37.853L13.3754 37.1746L13.0557 37.853ZM21.2659 38.5764L21.4648 39.2996L21.2659 38.5764ZM28.8551 36.4901L28.6563 35.7669L28.8551 36.4901ZM8.78415 9.99841L8.42279 9.3412V9.3412L8.78415 9.99841ZM4.37698 12.4216L4.01563 11.7644L4.37698 12.4216ZM31.5871 29.6385L30.9152 29.9717L31.5871 29.6385ZM38.2159 9.99841L37.8545 10.6556V10.6556L38.2159 9.99841ZM42.623 12.4216L42.9844 11.7644V11.7644L42.623 12.4216ZM31.2222 34.0355C30.808 34.0355 30.4722 34.3713 30.4722 34.7855C30.4722 35.1997 30.808 35.5355 31.2222 35.5355V34.0355ZM19.0809 23.0547L18.526 23.5592V23.5592L19.0809 23.0547ZM23.6191 23.0547L24.174 23.5592V23.5592L23.6191 23.0547ZM23.0679 12.5493L22.4614 12.1081L22.4614 12.1081L23.0679 12.5493ZM18.8442 18.355L18.2377 17.9138L18.8442 18.355ZM26.6618 19.7087L27.3337 19.3755C27.2235 19.1535 27.0109 19.0002 26.7655 18.9659C26.5201 18.9317 26.2736 19.0208 26.1069 19.2041L26.6618 19.7087ZM23.0139 12.6235L23.6204 13.0647L23.6204 13.0647L23.0139 12.6235ZM1.25 16.6509V29.5247H2.75V16.6509H1.25ZM4.28641 34.5493L12.7359 38.5314L13.3754 37.1746L4.92588 33.1925L4.28641 34.5493ZM21.4648 39.2996L29.0539 37.2133L28.6563 35.7669L21.0671 37.8533L21.4648 39.2996ZM16.2448 8.25H12.6302V9.75H16.2448V8.25ZM8.42279 9.3412L4.01563 11.7644L4.73833 13.0788L9.1455 10.6556L8.42279 9.3412ZM12.6302 8.25C11.166 8.25 9.72527 8.62506 8.42279 9.3412L9.1455 10.6556C10.2313 10.0586 11.4241 9.75 12.6302 9.75V8.25ZM29.0539 37.2133C32.3008 36.3206 33.7866 32.3849 32.259 29.3052L30.9152 29.9717C32.0827 32.3255 30.8696 35.1584 28.6563 35.7669L29.0539 37.2133ZM12.7359 38.5314C15.4875 39.8282 18.5551 40.0995 21.4648 39.2996L21.0671 37.8533C18.5065 38.5572 15.8065 38.3203 13.3754 37.1746L12.7359 38.5314ZM1.25 29.5247C1.25 31.6764 2.41642 33.668 4.28641 34.5493L4.92588 33.1925C3.63379 32.5835 2.75 31.1561 2.75 29.5247H1.25ZM2.75 16.6509C2.75 15.1074 3.54326 13.7359 4.73833 13.0788L4.01563 11.7644C2.29715 12.7093 1.25 14.6124 1.25 16.6509H2.75ZM44.25 16.6509V30.057H45.75V16.6509H44.25ZM29.7834 9.75H34.3698V8.25H29.7834V9.75ZM37.8545 10.6556L42.2617 13.0788L42.9844 11.7644L38.5772 9.3412L37.8545 10.6556ZM40.7 34.0355H31.2222V35.5355H40.7V34.0355ZM18.526 23.5592C20.0768 25.2645 22.6232 25.2645 24.174 23.5592L23.0642 22.5501C22.1086 23.6009 20.5914 23.6009 19.6358 22.5501L18.526 23.5592ZM34.3698 9.75C35.5759 9.75 36.7687 10.0586 37.8545 10.6556L38.5772 9.3412C37.2747 8.62506 35.834 8.25 34.3698 8.25V9.75ZM23.6744 12.9905C25.1755 10.9271 27.4276 9.75 29.7834 9.75V8.25C26.914 8.25 24.2244 9.68477 22.4614 12.1081L23.6744 12.9905ZM18.2377 17.9138C17.0102 19.6011 17.1269 22.0207 18.526 23.5592L19.6358 22.5501C18.7225 21.5458 18.6353 19.9171 19.4507 18.7963L18.2377 17.9138ZM44.25 30.057C44.25 32.3229 42.5951 34.0355 40.7 34.0355V35.5355C43.5545 35.5355 45.75 33.0141 45.75 30.057H44.25ZM45.75 16.6509C45.75 14.6124 44.7029 12.7093 42.9844 11.7644L42.2617 13.0788C43.4567 13.7359 44.25 15.1074 44.25 16.6509H45.75ZM24.174 23.5592L27.2166 20.2133L26.1069 19.2041L23.0642 22.5501L24.174 23.5592ZM32.259 29.3052L27.3337 19.3755L25.9899 20.042L30.9152 29.9717L32.259 29.3052ZM19.4507 18.7963L23.6204 13.0647L22.4074 12.1823L18.2377 17.9138L19.4507 18.7963ZM23.6204 13.0647L23.6744 12.9905L22.4614 12.1081L22.4074 12.1823L23.6204 13.0647ZM23.6247 12.1883C21.8822 9.74259 19.1751 8.25 16.2448 8.25V9.75C18.6505 9.75 20.9182 10.9747 22.4031 13.0587L23.6247 12.1883Z" fill="white"/>
</svg>
