<svg width="48" height="54" viewBox="0 0 48 54" fill="none" xmlns="http://www.w3.org/2000/svg">
<path d="M37.0816 8.70933L36.4951 9.17674V9.17674L37.0816 8.70933ZM42.9258 16.0432L43.5124 15.5758V15.5758L42.9258 16.0432ZM43.1181 22.0869L43.7355 22.5127V22.5127L43.1181 22.0869ZM27.3707 44.9222L26.7533 44.4964L27.3707 44.9222ZM20.6293 44.9222L21.2467 44.4964L20.6293 44.9222ZM4.88191 22.087L4.26448 22.5127H4.26448L4.88191 22.087ZM5.07419 16.0432L5.66073 16.5106H5.66073L5.07419 16.0432ZM10.9184 8.70933L10.3318 8.24193L10.9184 8.70933ZM43.1369 19.7263C43.5511 19.7263 43.8869 19.3906 43.8869 18.9763C43.8869 18.5621 43.5511 18.2263 43.1369 18.2263V19.7263ZM24 46.2524L23.284 46.4757C23.3817 46.789 23.6718 47.0024 24 47.0024C24.3282 47.0024 24.6183 46.789 24.716 46.4757L24 46.2524ZM4.86313 18.2263C4.44891 18.2263 4.11313 18.5621 4.11313 18.9763C4.11313 19.3906 4.44891 19.7263 4.86313 19.7263V18.2263ZM36.4951 9.17674L42.3393 16.5106L43.5124 15.5758L37.6682 8.24193L36.4951 9.17674ZM42.5007 21.6612L26.7533 44.4964L27.9882 45.348L43.7355 22.5127L42.5007 21.6612ZM21.2467 44.4964L5.49933 21.6612L4.26448 22.5127L20.0118 45.348L21.2467 44.4964ZM5.66073 16.5106L11.5049 9.17674L10.3318 8.24193L4.48764 15.5758L5.66073 16.5106ZM28.2526 7.86719H33.9032V6.36719H28.2526V7.86719ZM32.5053 19.7263H43.1369V18.2263H32.5053V19.7263ZM27.5467 7.37035L31.7993 19.2295L33.2113 18.7232L28.9586 6.86403L27.5467 7.37035ZM24.716 46.4757L33.2213 19.1996L31.7893 18.7531L23.284 46.0291L24.716 46.4757ZM14.0968 7.86719H20.2199V6.36719H14.0968V7.86719ZM20.2199 7.86719H28.2526V6.36719H20.2199V7.86719ZM4.86313 19.7263H15.4947V18.2263H4.86313V19.7263ZM15.4947 19.7263H32.5053V18.2263H15.4947V19.7263ZM19.5231 6.83958L14.798 18.6987L16.1915 19.2539L20.9166 7.39479L19.5231 6.83958ZM24.716 46.0291L16.2107 18.7531L14.7787 19.1996L23.284 46.4757L24.716 46.0291ZM5.49933 21.6612C4.44027 20.1254 4.51253 17.9515 5.66073 16.5106L4.48764 15.5758C2.92331 17.5388 2.83415 20.4386 4.26448 22.5127L5.49933 21.6612ZM26.7533 44.4964C25.3491 46.5327 22.6509 46.5327 21.2467 44.4964L20.0118 45.348C22.0123 48.2488 25.9877 48.2488 27.9882 45.348L26.7533 44.4964ZM42.3393 16.5106C43.4875 17.9515 43.5597 20.1254 42.5007 21.6612L43.7355 22.5127C45.1659 20.4386 45.0767 17.5388 43.5124 15.5758L42.3393 16.5106ZM37.6682 8.24193C36.7297 7.06422 35.363 6.36719 33.9032 6.36719V7.86719C34.8727 7.86719 35.8196 8.32901 36.4951 9.17674L37.6682 8.24193ZM11.5049 9.17674C12.1804 8.32901 13.1273 7.86719 14.0968 7.86719V6.36719C12.637 6.36719 11.2703 7.06422 10.3318 8.24193L11.5049 9.17674Z" fill="white"/>
</svg>
