<svg width="48" height="54" viewBox="0 0 48 54" fill="none" xmlns="http://www.w3.org/2000/svg">
<path d="M27.25 9.42189C27.25 11.5111 25.7284 13.0782 24 13.0782V14.5782C26.69 14.5782 28.75 12.1997 28.75 9.42189H27.25ZM24 13.0782C22.2717 13.0782 20.75 11.5111 20.75 9.42189H19.25C19.25 12.1997 21.3101 14.5782 24 14.5782V13.0782ZM20.75 9.42189C20.75 7.33267 22.2717 5.76562 24 5.76562V4.26562C21.3101 4.26562 19.25 6.64408 19.25 9.42189H20.75ZM24 5.76562C25.7284 5.76562 27.25 7.33267 27.25 9.42189H28.75C28.75 6.64408 26.69 4.26562 24 4.26562V5.76562ZM27.25 44.672C27.25 46.7613 25.7284 48.3283 24 48.3283V49.8283C26.69 49.8283 28.75 47.4499 28.75 44.672H27.25ZM24 48.3283C22.2717 48.3283 20.75 46.7613 20.75 44.672H19.25C19.25 47.4499 21.3101 49.8283 24 49.8283V48.3283ZM20.75 44.672C20.75 42.5828 22.2717 41.0158 24 41.0158V39.5158C21.3101 39.5158 19.25 41.8942 19.25 44.672H20.75ZM24 41.0158C25.7284 41.0158 27.25 42.5828 27.25 44.672H28.75C28.75 41.8942 26.69 39.5158 24 39.5158V41.0158ZM39.454 21.4175C37.9435 22.3782 35.9757 21.8428 35.0567 20.0894L33.7281 20.7857C35.0182 23.2473 37.9431 24.1561 40.259 22.6832L39.454 21.4175ZM35.0567 20.0894C34.119 18.3002 34.6999 16.0429 36.259 15.0513L35.454 13.7856C33.1867 15.2276 32.4567 18.3599 33.7281 20.7857L35.0567 20.0894ZM36.259 15.0513C37.7695 14.0907 39.7373 14.626 40.6563 16.3795L41.9849 15.6831C40.6948 13.2216 37.7699 12.3128 35.454 13.7856L36.259 15.0513ZM40.6563 16.3795C41.594 18.1686 41.0131 20.426 39.454 21.4175L40.259 22.6832C42.5263 21.2412 43.2563 18.1089 41.9849 15.6831L40.6563 16.3795ZM11.7412 39.0426C10.2308 40.0032 8.26292 39.4679 7.34392 37.7145L6.01534 38.4108C7.30548 40.8723 10.2304 41.7811 12.5462 40.3083L11.7412 39.0426ZM7.34392 37.7145C6.4062 35.9253 6.98717 33.6679 8.54622 32.6764L7.74125 31.4107C5.47396 32.8527 4.74393 35.985 6.01534 38.4108L7.34392 37.7145ZM8.54622 32.6764C10.0567 31.7157 12.0245 32.2511 12.9435 34.0045L14.2721 33.3082C12.982 30.8466 10.0571 29.9378 7.74125 31.4107L8.54622 32.6764ZM12.9435 34.0045C13.8813 35.7937 13.3003 38.051 11.7412 39.0426L12.5462 40.3083C14.8135 38.8663 15.5435 35.734 14.2721 33.3082L12.9435 34.0045ZM36.259 39.0426C34.6999 38.051 34.119 35.7937 35.0567 34.0045L33.7281 33.3082C32.4567 35.734 33.1867 38.8663 35.454 40.3083L36.259 39.0426ZM35.0567 34.0045C35.9757 32.2511 37.9435 31.7157 39.454 32.6764L40.259 31.4107C37.9431 29.9378 35.0182 30.8466 33.7281 33.3082L35.0567 34.0045ZM39.454 32.6764C41.0131 33.6679 41.594 35.9253 40.6563 37.7145L41.9849 38.4108C43.2563 35.985 42.5263 32.8527 40.259 31.4107L39.454 32.6764ZM40.6563 37.7145C39.7373 39.4679 37.7695 40.0032 36.259 39.0426L35.454 40.3083C37.7699 41.7811 40.6948 40.8723 41.9849 38.4108L40.6563 37.7145ZM8.54622 21.4176C6.98717 20.426 6.4062 18.1687 7.34392 16.3795L6.01534 15.6832C4.74393 18.109 5.47396 21.2413 7.74125 22.6833L8.54622 21.4176ZM7.34392 16.3795C8.26292 14.6261 10.2308 14.0907 11.7412 15.0514L12.5462 13.7857C10.2304 12.3128 7.30548 13.2216 6.01534 15.6832L7.34392 16.3795ZM11.7412 15.0514C13.3003 16.0429 13.8813 18.3003 12.9435 20.0895L14.2721 20.7858C15.5435 18.36 14.8135 15.2277 12.5462 13.7857L11.7412 15.0514ZM12.9435 20.0895C12.0245 21.8429 10.0567 22.3782 8.54622 21.4176L7.74125 22.6833C10.0571 24.1561 12.982 23.2473 14.2721 20.7858L12.9435 20.0895Z" fill="white"/>
</svg>
